<svg width="106" height="16" viewBox="0 0 106 16" fill="none" xmlns="http://www.w3.org/2000/svg">
<path d="M0.666687 13.5815L1.3954 12.7366C2.25437 13.5252 3.10277 14.099 3.94061 14.4581C4.77846 14.8101 5.74303 14.9861 6.83434 14.9861C7.96086 14.9861 8.87967 14.701 9.59078 14.1307C10.3019 13.5604 10.6574 12.8282 10.6574 11.934C10.6574 11.3707 10.5413 10.9025 10.3089 10.5294C10.0836 10.1562 9.65415 9.81826 9.02048 9.51551C8.39386 9.21276 7.51377 8.94521 6.38022 8.71287C4.55668 8.33971 3.24711 7.82222 2.45151 7.1604C1.66295 6.49153 1.26867 5.57624 1.26867 4.41452C1.26867 3.28097 1.72983 2.33399 2.65217 1.5736C3.5745 0.813201 4.73621 0.433003 6.13731 0.433003C7.2075 0.433003 8.14039 0.580858 8.93599 0.876568C9.73159 1.16524 10.5272 1.62992 11.3228 2.27063L10.6152 3.15776C9.91817 2.55226 9.20354 2.11573 8.47131 1.84818C7.74612 1.58064 6.95404 1.44686 6.09507 1.44686C4.99672 1.44686 4.10607 1.72497 3.42312 2.28119C2.74017 2.83036 2.3987 3.52035 2.3987 4.35116C2.3987 4.92145 2.51135 5.3967 2.73665 5.7769C2.969 6.15006 3.40904 6.49857 4.05679 6.82244C4.71157 7.13927 5.62686 7.41738 6.80266 7.65677C8.5558 8.01584 9.82312 8.52629 10.6046 9.18812C11.3932 9.84995 11.7875 10.7441 11.7875 11.8706C11.7875 13.0816 11.3158 14.0744 10.3723 14.8488C9.42884 15.6163 8.22488 16 6.76042 16C5.57054 16 4.48627 15.8029 3.50761 15.4086C2.53599 15.0143 1.58902 14.4053 0.666687 13.5815Z" fill="#212121"/>
<path d="M17.1191 15.7888V0H18.1752V15.7888H17.1191Z" fill="#212121"/>
<path d="M24.1089 1.87987V0.433003H25.4184V1.87987H24.1089ZM24.2356 15.7888V4.76304H25.2917V15.7888H24.2356Z" fill="#212121"/>
<path d="M31.1936 15.7888V4.76304H32.2603V6.72739C32.4645 6.40352 32.6687 6.12189 32.8728 5.88251C33.077 5.64312 33.3234 5.4143 33.6121 5.19604C33.9078 4.97074 34.2493 4.79824 34.6365 4.67855C35.0308 4.55886 35.4638 4.49901 35.9355 4.49901C36.8368 4.49901 37.5972 4.72079 38.2167 5.16436C38.8434 5.60088 39.3221 6.17118 39.653 6.87525C40.5754 5.29109 41.9025 4.49901 43.6346 4.49901C44.9371 4.49901 45.9685 4.91793 46.7289 5.75578C47.4893 6.59362 47.8695 7.70957 47.8695 9.10363V15.7888H46.8134V9.23036C46.8134 8.04752 46.5248 7.12519 45.9474 6.46337C45.3701 5.80154 44.571 5.47063 43.5501 5.47063C42.5784 5.47063 41.7547 5.82266 41.0788 6.52673C40.4029 7.2308 40.0649 8.17778 40.0649 9.36766V15.7888H39.0088V9.167C39.0088 8.0264 38.7166 7.12519 38.1322 6.46337C37.5549 5.80154 36.7734 5.47063 35.7877 5.47063C34.802 5.47063 33.9677 5.85435 33.2847 6.62178C32.6018 7.38218 32.2603 8.31859 32.2603 9.43102V15.7888H31.1936Z" fill="#212121"/>
<path d="M53.4614 15.2036V0.059021H54.5175L60.6007 9.0148L66.6733 0.059021H67.74V15.2036H66.6099V2.05506L60.6218 10.7679H60.5373L54.5387 2.05506V15.2036H53.4614Z" fill="#FC842D"/>
<path d="M72.9766 9.6907C72.9766 8.92327 73.1209 8.18751 73.4096 7.48344C73.6982 6.77937 74.089 6.16683 74.5819 5.64582C75.0747 5.11777 75.6767 4.69884 76.3878 4.38905C77.0989 4.07222 77.8558 3.91381 78.6584 3.91381C79.7216 3.91381 80.6861 4.17783 81.5521 4.70589C82.4252 5.2269 83.1011 5.93097 83.5799 6.8181C84.0657 7.69818 84.3086 8.65572 84.3086 9.6907C84.3086 10.7186 84.0657 11.6727 83.5799 12.5527C83.0941 13.4328 82.4111 14.1404 81.531 14.6755C80.658 15.2036 79.6864 15.4676 78.6162 15.4676C77.8206 15.4676 77.0707 15.3127 76.3667 15.0029C75.6626 14.6931 75.0641 14.2777 74.5713 13.7567C74.0784 13.2357 73.6877 12.6232 73.399 11.9191C73.1174 11.208 72.9766 10.4652 72.9766 9.6907ZM74.1172 9.6907C74.1172 11.0214 74.5537 12.1514 75.4267 13.0808C76.3068 14.0031 77.3841 14.4643 78.6584 14.4643C79.4611 14.4643 80.2074 14.2531 80.8974 13.8306C81.5874 13.4012 82.1365 12.8203 82.5449 12.0881C82.9532 11.3558 83.1574 10.5567 83.1574 9.6907C83.1574 8.36705 82.7139 7.24054 81.8267 6.31117C80.9396 5.37475 79.8694 4.90655 78.6162 4.90655C77.7995 4.90655 77.0461 5.12129 76.3561 5.55077C75.6661 5.97321 75.1205 6.55407 74.7191 7.29334C74.3178 8.02558 74.1172 8.8247 74.1172 9.6907Z" fill="#FC842D"/>
<path d="M89.2917 15.2036V4.17783H90.3584V6.14219C90.5626 5.81832 90.7667 5.53669 90.9709 5.2973C91.1751 5.05792 91.4215 4.8291 91.7102 4.61084C92.0059 4.38553 92.3474 4.21304 92.7346 4.09334C93.1289 3.97365 93.5619 3.91381 94.0336 3.91381C94.9348 3.91381 95.6952 4.13559 96.3148 4.57915C96.9414 5.01568 97.4202 5.58597 97.7511 6.29004C98.6734 4.70589 100.001 3.91381 101.733 3.91381C103.035 3.91381 104.067 4.33273 104.827 5.17057C105.587 6.00842 105.968 7.12437 105.968 8.51843V15.2036H104.912V8.64516C104.912 7.46232 104.623 6.53999 104.046 5.87816C103.468 5.21634 102.669 4.88542 101.648 4.88542C100.677 4.88542 99.8528 5.23746 99.1769 5.94153C98.5009 6.6456 98.163 7.59257 98.163 8.78245V15.2036H97.1069V8.58179C97.1069 7.4412 96.8147 6.53999 96.2303 5.87816C95.653 5.21634 94.8715 4.88542 93.8858 4.88542C92.9001 4.88542 92.0657 5.26914 91.3828 6.03658C90.6998 6.79697 90.3584 7.73339 90.3584 8.84582V15.2036H89.2917Z" fill="#FC842D"/>
</svg>
